<svg width="152" height="152" viewBox="0 0 152 152" fill="none" xmlns="http://www.w3.org/2000/svg">
<rect width="152" height="152" fill="#81B3D3"/>
<path d="M52.4241 92.6963C52.5271 92.801 52.5793 92.9044 52.5793 93.0091C52.6836 93.0091 52.7866 93.0602 52.8896 93.1649C55.685 96.2826 58.8442 99.1935 62.3645 101.896C65.8848 104.494 69.9241 105.897 74.4797 106.105C74.584 106.105 74.687 106.159 74.79 106.263H75.2568C75.3598 106.263 75.4641 106.314 75.5671 106.418H77.2751C77.794 106.314 78.2595 106.21 78.6741 106.105C80.334 105.793 81.9169 105.157 83.334 104.235C84.8855 103.299 86.0772 102.155 86.9052 100.805L87.2168 100.18L87.5271 99.5573C87.7344 98.8296 87.8896 98.1542 87.9939 97.5299C88.0969 96.9069 88.149 96.3349 88.149 95.8153C88.149 93.0091 86.9052 90.6702 84.4214 88.7986C82.1055 86.8616 79.4793 85.3326 76.6545 84.2765C75.5921 83.8829 74.5016 83.5705 73.3923 83.342C72.4185 83.0462 71.4343 82.786 70.4417 82.5619H70.1314C70.0271 82.4585 69.9241 82.4061 69.8211 82.4061C64.7847 81.1742 59.9656 79.176 55.5312 76.481C51.0773 73.6748 48.0237 69.6723 46.3666 64.4749C46.042 63.3873 45.7313 62.2956 45.4343 61.2001C45.2217 60.0134 45.0664 58.817 44.9689 57.6152C44.8734 57.2585 44.8213 56.8915 44.8137 56.5223V52.7803C44.9167 51.9492 45.0718 51.1181 45.2792 50.2856C45.6007 48.1624 46.1206 46.0743 46.832 44.0489C47.5569 41.9705 48.4892 40.0988 49.6274 38.4366C52.9418 32.9263 57.187 28.9762 62.3645 26.5863C67.6463 24.195 73.1342 23 78.8293 23C80.1761 23 81.5217 23.1034 82.8686 23.3115C84.323 23.4158 85.7733 23.5717 87.2168 23.7787C90.9939 24.4165 94.6913 25.4623 98.2446 26.8978C101.972 28.3532 105.39 30.0678 108.497 32.0428L99.9539 51.2214C97.166 49.1478 94.2034 47.322 91.0996 45.7649C87.9939 44.2047 84.6287 43.4259 81.0041 43.4259H79.7602C77.3794 43.7374 75.1538 44.829 73.082 46.6993C71.0115 48.4663 69.9763 50.3903 69.9763 52.4688V53.4046C70.0793 53.7161 70.2344 54.0276 70.4417 54.3404C70.6491 55.0682 71.0115 55.7435 71.5291 56.3679C72.0468 56.9909 72.6165 57.5628 73.2371 58.0824C74.3767 59.0183 76.0325 59.9018 78.2087 60.7329C80.3821 61.4606 82.6612 62.1883 85.0433 62.916C87.0095 63.4356 88.9248 63.9553 90.7893 64.4749C92.6538 64.8911 94.2066 65.3073 95.4492 65.7235C101.247 67.802 105.597 71.2835 108.497 76.1695C111.395 80.9507 112.897 86.0447 113 91.449V92.2291C113 92.8534 112.949 93.4777 112.845 94.1007V95.8153C112.224 101.221 110.464 106.366 107.564 111.252C104.769 116.138 100.989 119.88 96.2263 122.479C94.4584 123.313 92.6429 124.042 90.7893 124.661C88.9382 125.178 87.074 125.646 85.1985 126.066C83.6604 126.375 82.1038 126.583 80.5386 126.689C79.0455 126.892 77.5407 126.996 76.0339 127H74.3245C68.1118 126.793 62.0034 125.441 55.9966 122.945C49.9912 120.347 44.6585 116.917 40 112.655L52.4241 92.6963Z" fill="white"/>
</svg>
